<svg width="507" height="150" viewBox="0 0 507 150" fill="none" xmlns="http://www.w3.org/2000/svg">
<path d="M101.013 91.7682C103.067 84.5017 104.164 77.4348 100.588 70.6335C96.5951 63.0412 91.0759 61.8773 83.3254 62.8416C83.0021 62.8818 82.691 63.0642 82.3707 63.1622C75.71 65.2012 75.372 65.2059 75.4552 73.8544C75.5925 88.1056 74.4827 102.314 74.8384 116.56C74.8695 117.806 74.8559 119.063 74.9875 120.294C75.3259 123.459 74.1918 125.891 72.2033 126.106C70.4066 126.301 68.3439 123.3 68.4941 120.468C69.0525 109.938 69.8467 99.4221 70.2093 88.882C70.4622 81.5279 70.2698 74.1378 70.0576 66.7739C69.9198 61.9891 72.021 58.0644 75.7848 57.2246C80.4672 56.1798 85.1233 55.0956 89.9223 54.8207C95.3686 54.5086 99.5611 57.3737 103.106 61.8999C105.649 65.1473 107.257 69.3342 108.55 73.6753C109.375 76.4471 109.029 79.4393 108.744 81.9109C107.968 88.6349 107.681 95.6076 103.335 101.138C100.655 104.549 98.5623 108.809 95.4493 111.741C90.6697 116.243 86.2736 121.6 80.2631 123.565C78.8045 124.041 77.0219 124.907 76.1129 122.509C75.2268 120.171 76.0742 118.264 77.7098 116.916C80.1748 114.884 82.6564 112.875 85.1325 110.875C91.3156 105.881 96.9609 100.006 101.013 91.7682Z" fill="white"/>
<path d="M316.74 86.1945C317.077 75.7878 323.839 67.4861 332.006 67.1928C333.607 67.1353 334.914 65.3511 336.864 66.8179C339.143 68.533 340.537 70.8332 341.04 73.807C342.52 82.5641 345.236 90.8731 346.691 99.6355C348.029 107.693 348.801 115.802 348.715 124.037C348.701 125.427 348.529 126.719 347.673 127.743C344.491 131.555 340.567 132.086 336.598 131.089C333.252 130.25 331.573 126.683 331.227 121.366C331.193 120.848 331.142 120.329 331.067 119.819C330.874 118.505 330.354 116.818 331.599 116.216C332.977 115.549 333.837 117.073 334.499 118.446C334.797 119.065 334.991 119.763 335.23 120.426C336.382 123.621 337.819 124.357 340.875 123.545C343.201 122.927 343.325 120.605 343.249 118.462C343.024 112.124 342.649 105.77 341.32 99.6277C340.906 97.712 341.644 95.3041 339.837 93.7571C338.464 94.4544 337.7 96.1351 336.701 97.4255C331.127 104.631 324.811 102.424 320.016 95.7086C318.172 93.1259 316.886 90.0851 316.74 86.1945ZM325.869 93.9097C326.67 94.595 327.499 94.5384 328.447 94.3899C331.679 93.8839 333.402 91.059 334.985 87.9675C337.402 83.2484 336.292 75.8128 332.741 72.5571C331.992 71.8705 331.351 72.0979 330.703 72.6283C327.928 74.9004 325.45 77.6231 323.604 81.0919C321.354 85.3204 322.247 90.5804 325.869 93.9097Z" fill="white"/>
<path d="M403.841 43.1613C403.899 41.1951 403.866 39.5207 404.035 37.879C404.247 35.8048 405.457 34.7219 406.958 34.756C408.608 34.7936 409.007 36.5579 409.066 38.3253C409.167 41.3275 408.813 44.3183 408.684 47.3038C408.394 54.0285 409.191 60.5156 410.261 67.0362C411.749 76.1084 409.551 84.0585 405.052 91.0496C403.261 93.8327 399.619 93.9898 397.163 92.0186C391.026 87.0928 388.415 79.9057 388.606 70.9244C388.711 65.9757 390.585 61.8475 393.133 58.4285C394.677 56.3574 397.088 56.7322 399.109 57.9772C400.8 59.0193 402.398 60.3099 404.336 62.6555C403.801 55.7064 403.888 49.5869 403.841 43.1613ZM401.981 67.8754C401.482 67.3387 401.01 66.757 400.481 66.2731C397.898 63.91 397.328 63.9634 395.601 67.3085C392.971 72.4005 394.393 80.7461 398.317 84.1999C399.385 85.1392 400.406 85.0086 401.485 84.0139C405.512 80.3006 405.83 73.9314 401.981 67.8754Z" fill="white"/>
<path d="M219.124 93.3277C218.374 90.5941 219.19 88.349 219.775 86.0954C222.27 76.4876 228.267 70.5121 235.432 70.4419C239.778 70.3994 241.29 73.5867 239.904 78.8106C238.867 82.7184 237.475 85.9655 234.676 88.2413C231.31 90.9775 228.559 91.4577 224.918 89.5979C223.128 94.8419 225.51 101.541 229.752 103.229C230.651 103.587 231.541 103.647 232.41 103.192C237.668 100.439 243.032 97.8792 246.094 91.1343C246.527 90.1799 247.222 89.5344 248.16 89.9848C248.951 90.3647 249.129 91.2392 249.176 92.2613C249.459 98.3701 247.498 102.581 243.085 105.226C240.931 106.516 238.818 107.935 236.613 109.067C232.898 110.973 229.214 111.137 225.867 107.832C222.184 104.194 219.459 99.7899 219.124 93.3277ZM226.009 85.1324C225.683 86.0614 225.81 86.45 226.715 86.3093C229.751 85.8375 232.208 84.1535 233.919 80.9197C234.578 79.6751 234.926 78.316 233.9 76.5698C230.376 77.8891 227.787 80.5751 226.009 85.1324Z" fill="white"/>
<path d="M145.229 101.271C145.963 105.42 145.022 108.363 142.118 110.319C139.727 111.929 137.5 113.883 134.873 114.964C129.847 117.031 124.564 115.203 120.86 109.897C117.54 105.14 116.802 97.9001 119.061 92.0963C120.483 88.4421 122.292 85.2095 124.555 82.2167C127.348 78.5251 130.834 77.4391 134.49 76.6534C136.448 76.2325 137.819 77.3776 138.301 79.9673C139.471 86.239 137.656 91.4725 134.451 95.9426C133.055 97.8907 131.029 99.1484 129.226 100.595C127.462 102.01 125.581 102.418 123.676 100.814C123.083 105.237 126.939 109.704 130.67 109.132C133.02 108.771 135.081 107.434 137.014 105.843C138.865 104.319 140.833 103.002 142.435 100.997C143.247 99.9803 144.258 99.4343 145.229 101.271ZM132.824 83.3943C128.63 84.5517 123.752 91.62 123.618 97.3961C126.145 95.4215 128.962 94.6695 130.637 91.7001C131.985 89.3101 134.277 87.2433 132.824 83.3943Z" fill="white"/>
<path d="M354.721 79.1542C354.798 76.1022 355.204 73.3718 355.623 70.6105C357.285 59.6621 364.164 58.5815 370.762 62.01C373.489 63.4271 376.311 64.688 377.391 68.8114C378.733 73.9313 378.741 79.0053 377.445 84.1003C377.276 84.7656 376.951 85.456 376.546 85.9238C372.263 90.8667 362.961 92.6738 358.046 87.2221C356.159 85.1289 355.197 82.4457 354.721 79.1542ZM372.664 73.9753C372.508 73.1375 372.319 72.2228 371.436 72.4521C369.735 72.8944 369.095 71.5879 368.523 69.9499C367.554 67.172 365.037 66.5427 363.138 68.5458C360.956 70.8469 359.972 76.8646 361.257 80.0342C361.765 81.2867 362.51 82.2039 363.575 82.68C368.389 84.8312 372.833 80.8294 372.664 73.9753Z" fill="white"/>
<path d="M171.581 90.1352C168.449 89.0515 166.748 89.7879 165.012 92.7814C162.835 96.5365 162.108 101.112 160.609 105.252C159.976 107 160.261 109.904 157.774 109.312C155.259 108.713 156.245 106 156.362 104.189C156.841 96.7611 158.535 89.754 163.24 84.8933C166.254 81.7802 169.755 79.0937 174.055 82.092C175.762 83.2826 176.896 85.0677 177.579 87.0896C179.682 93.3116 180.895 99.8813 181.288 106.625C181.493 110.154 180.165 112.939 178.715 112.988C177.128 113.04 175.383 110.265 175.14 106.956C174.714 101.157 174.298 95.3795 171.581 90.1352Z" fill="white"/>
<path d="M272.361 76.6784C271.712 76.9188 271.24 77.1037 270.767 77.2814C264.458 79.6516 262.535 83.4623 263.261 91.8079C263.485 94.3732 263.473 96.9818 263.442 99.5681C263.418 101.52 262.746 102.685 260.938 102.271C258.538 101.72 257.169 99.5129 257.526 96.1511C258.366 88.2234 258.35 80.2505 258.434 72.2825C258.452 70.5874 259.113 69.4458 260.235 68.9072C261.33 68.3818 262.205 69.2684 262.591 70.508C263.237 72.5829 264.301 72.4078 265.551 71.6501C268.09 70.1113 270.738 69.0943 273.557 68.7796C274.961 68.6228 276.351 68.4671 277.695 69.1656C278.668 69.6713 279.827 69.9617 279.568 71.8694C279.335 73.586 278.984 75.183 277.391 75.571C275.78 75.9634 274.156 76.2734 272.361 76.6784Z" fill="white"/>
</svg>
