<svg width="1581" height="1000" viewBox="0 0 1581 1000" fill="none" xmlns="http://www.w3.org/2000/svg">
<path d="M310.236 582.104C303.317 565.041 296.565 548.488 289.517 531.206C279.449 539.929 271.5 549.577 264.436 560.251C258.573 569.11 255.828 569.293 250.216 560.261C244.824 551.583 239.6 542.757 234.234 534.054C230.161 527.45 228.807 527.35 225.227 534.196C211.463 560.513 190.319 578.613 172.804 600.744C169.318 605.148 165.47 603.788 162.381 597.914C160.03 593.446 161.055 588.797 164.687 586.808C182.213 577.211 192.534 558.896 203.994 541.962C207.399 536.93 210.163 531.29 213.287 525.984C216.828 519.972 222.779 517.445 227.26 512.699C229.909 509.892 238.883 515.659 240.617 520.126C244.536 530.22 251.274 538.079 256.205 547.394C257.96 550.71 260.237 549.191 262.332 547.051C270.649 538.557 277.18 528.119 284.367 518.42C290.296 510.418 294.456 510.443 298.27 519.897C307.866 543.682 316.353 568.093 326.776 591.406C329.105 596.615 326.181 599.108 323.548 601.509C320.589 604.207 318.675 601.201 317.129 598.684C314.129 593.8 312.254 588.203 310.236 582.104Z" fill="white"/>
<path d="M753.785 591.227C748.972 581.193 750.516 572.194 755.9 564.031C761.371 555.734 768.636 552.737 778.221 556.015C778.985 546.585 779.244 537.472 778.532 528.332C778.272 525.006 777.465 521.744 777.086 518.424C776.689 514.947 775.515 510.473 779.384 509.196C783.045 507.988 785.748 511.356 787.739 514.769C788.501 516.077 788.598 517.936 788.987 519.548C790.947 527.655 793.175 536.217 794.244 543.97C796.451 559.968 799.138 577.803 789.604 592.463C782.054 604.072 769.105 611.774 757.902 596.263C756.723 594.63 755.344 593.199 753.785 591.227ZM773.256 592.704C778.809 590.736 779.538 584.553 779.96 579.526C780.408 574.181 776.048 571.133 772.636 568.183C768.868 564.924 765.636 566.364 763.345 570.445C760.416 575.663 760.86 581.337 762.955 586.87C764.772 591.67 768.079 593.307 773.256 592.704Z" fill="white"/>
<path d="M1041.27 552.739C1042.15 545.26 1044.84 538.327 1038.13 532.787C1035.34 530.481 1036.21 526.706 1039.95 525.295C1041.8 524.597 1044.2 524.967 1044.66 521.79C1045.1 518.8 1045.68 515.883 1048.87 515.921C1052.32 515.962 1052.5 519.739 1053.71 522.88C1056.57 521.609 1059.12 520.796 1061.3 524.979C1063.01 528.259 1066.54 526.079 1069.26 526.202C1071.61 526.307 1074.68 525.192 1075.24 529.096C1075.81 533.123 1072.81 534.49 1070.21 534.832C1066.02 535.382 1061.74 535.584 1057.54 535.278C1054.25 535.039 1052.36 536.421 1051.94 540.061C1050.37 553.588 1048.85 567.154 1051.33 580.757C1052.1 585.033 1053.16 589.34 1057.8 589.807C1062.63 590.293 1064.52 586.201 1066.06 581.907C1067.4 578.166 1068.58 574.322 1069.55 570.423C1070.64 566.028 1073.23 564.915 1076.54 565.626C1080.14 566.4 1080.62 569.678 1080.29 573.342C1079.34 584.229 1075.93 593.62 1068.83 600.967C1063.04 606.952 1049.81 603.811 1046.33 595.71C1040.53 582.248 1037.99 568.329 1041.27 552.739Z" fill="white"/>
<path d="M568.359 564.774C565.158 573.07 565.318 581.673 563.736 589.827C563.062 593.299 563.134 598.171 559.179 597.612C555.647 597.114 554.731 592.736 554.713 588.555C554.629 568.667 554.517 548.78 554.307 528.894C554.246 523.153 553.793 517.419 553.589 511.678C553.499 509.15 553.802 506.658 556.506 506.374C558.965 506.116 560.145 508.081 560.727 510.59C562.837 519.68 562.605 529.104 563.419 538.377C563.79 542.607 563.695 546.887 565.214 551.388C566.184 550.695 566.892 550.331 567.457 549.765C578.004 539.213 589.88 541.824 595.949 556.463C600.472 567.373 602.339 579.152 602.296 591.314C602.286 594.214 602.151 597.679 599.039 598.026C596.059 598.359 594.947 595.005 594.442 592.287C593.443 586.924 592.809 581.448 592.279 575.983C591.661 569.617 589.895 563.899 586.59 558.805C581.691 551.252 577.19 550.985 571.755 558.252C570.442 560.008 569.578 562.238 568.359 564.774Z" fill="white"/>
<path d="M430.162 604.995C427.462 602.894 427.199 600.125 427.096 597.13C426.793 588.26 426.595 579.37 425.904 570.538C425.273 562.466 423.515 554.574 416.609 550.808C412.321 548.47 405.009 553.847 400.553 562.377C396.492 570.15 393.484 578.494 392.214 587.675C391.73 591.168 390.45 594.532 389.348 597.868C388.741 599.703 387.604 601.242 385.697 601.052C383.46 600.829 382.862 598.75 382.395 596.563C378.077 576.335 397.122 542.514 414.439 539.676C422.222 538.401 428.702 543.619 432.347 553.228C436.199 563.384 435.93 574.305 437.165 584.941C437.715 589.674 437.599 594.523 437.686 599.322C437.799 605.537 435.953 607.037 430.162 604.995Z" fill="white"/>
<path d="M646.303 551.733C651.608 546.669 657.071 548.944 662.362 549.84C665.618 550.391 665.566 553.649 665.514 556.568C665.39 563.532 665.072 570.518 666.82 577.293C667.45 579.733 667.84 583.148 670.584 582.99C672.957 582.853 675.04 580.998 675.987 577.924C677.22 573.921 677.877 569.598 680.228 566.182C685.349 568.904 686.815 576.985 683.662 584.444C679.132 595.16 671.547 595.9 659.434 586.8C657.748 586.821 657.163 588.576 656.192 589.72C648.367 598.941 640.309 599.209 632.755 590.499C626.354 583.118 626.576 570.275 633.418 562.036C636.989 557.736 641.173 554.357 646.303 551.733ZM638.747 583.236C643.132 588.489 645.414 588.506 648.867 583.224C650.719 580.39 652.567 577.545 654.282 574.595C657.401 569.228 656.997 563.61 655.518 557.4C650.334 559.345 646.467 562.311 642.889 565.746C638.449 570.01 636.445 575.422 638.747 583.236Z" fill="white"/>
<path d="M887.108 537.989C890.358 527.22 891.105 526.772 898.113 531.459C896.574 538.046 894.348 544.49 891.021 550.083C888.175 554.866 889.423 558.321 891.671 562.413C897.823 573.611 906.102 582.892 911.872 594.469C913.232 597.197 913.991 598.989 911.981 601.205C909.638 603.787 907.698 601.873 906.398 599.732C900.505 590.023 892.676 582.121 887.733 571.551C886.021 567.889 884.113 565.436 880.063 566.638C875.909 567.871 875.527 571.264 875.517 575.378C875.5 581.85 875.453 588.335 875.076 594.786C874.899 597.813 874.161 601.833 870.956 601.516C867.736 601.197 866.86 597.907 867.243 593.895C868.502 580.699 867.286 567.585 865.709 554.518C864.787 546.881 865.046 539.209 865.131 531.541C865.168 528.166 866.475 525.768 869.442 525.965C872.626 526.177 873.131 529.096 872.848 532.278C872.169 539.932 874.249 547.154 874.441 556.06C881.589 551.647 883.945 544.749 887.108 537.989Z" fill="white"/>
<path d="M998.674 542.743C1002.14 536.903 1001.29 530.092 1003.09 524.013C1006.19 513.538 1015.8 509.918 1023.23 516.981C1025.8 519.421 1026.17 523.089 1024.34 528.537C1021.18 528.303 1019.59 524.111 1015.97 523.931C1011.91 527.839 1012.65 533.828 1011.75 539.239C1015.38 542.099 1018.66 539.004 1021.97 539.223C1025.04 539.426 1028.73 538.763 1029.23 543.49C1029.74 548.367 1025.78 547.992 1023.18 548.486C1010.93 550.811 1010.86 550.738 1009.37 565.145C1008.27 575.708 1007.65 586.269 1012.5 595.99C1014.84 600.694 1012.11 604.237 1010.46 607.848C1009.66 609.609 1007.59 609.556 1006.01 608.932C1003.4 607.904 1002.22 605.371 1002.06 602.303C1001.39 590.127 1000.81 577.943 1000.2 565.763C999.916 560.041 1000.83 554.632 995.235 550.311C990.517 546.67 995.288 544.39 998.674 542.743Z" fill="white"/>
<path d="M832.19 564.721C838.86 566.684 843.106 572.005 847.326 577.103C850.944 581.475 850.044 588.63 845.576 592.977C836.606 601.702 826.304 601.822 815.671 598.914C813.686 598.371 812.723 596.474 813.007 593.959C813.292 591.43 814.652 590.03 816.699 590.06C818.699 590.09 820.693 590.623 822.69 590.924C829.427 591.942 835.353 589.931 840.663 584.726C839.117 579.619 835.8 578.616 832.414 577.856C818.378 574.706 812.605 560.846 819.754 546.044C822.1 541.188 827.135 539.787 831.846 539.381C835.58 539.059 838.421 540.785 839.968 545.649C836.212 548.051 831.68 548.177 828.959 552.58C825.522 558.141 826.2 561.692 832.19 564.721Z" fill="white"/>
<path d="M935.142 596.803C935.588 600.771 936.071 604.073 936.313 607.4C936.431 609.02 936.399 610.898 934.894 611.817C933.176 612.865 931.804 611.726 930.5 610.519C928.335 608.513 926.893 605.944 926.676 602.666C925.617 586.698 924.449 570.735 923.696 554.745C923.442 549.365 926.753 547.494 930.488 550.976C932.723 553.06 934.17 552.833 936.361 551.607C942.71 548.054 948.43 549.457 953.896 555.353C951.64 558.125 949.382 559.926 946.153 560.164C937.375 560.808 933.668 565.615 933.958 576.102C934.144 582.791 934.694 589.466 935.142 596.803Z" fill="white"/>
<path d="M703.496 591.961C701.484 596.448 698.419 596.906 695.494 595.379C692.66 593.901 693.812 590.411 694.063 587.645C694.792 579.609 697.484 572.25 700.705 565.373C705.471 555.198 721.747 555.437 728.517 566.123C733.666 574.251 735.68 584.232 736.696 594.331C736.836 595.725 736.603 597.224 735.114 598.567C731.093 598.324 729.357 594.793 728.076 590.593C726.36 584.967 725.382 578.972 722.476 573.933C720.531 570.562 718.562 566.864 714.389 567.672C710.315 568.461 707.87 571.04 706.268 576.032C704.636 581.122 704.559 586.297 703.496 591.961Z" fill="white"/>
<path d="M357.828 588.355C358.704 574.805 360.08 561.933 358.297 548.949C357.927 546.247 358.576 543.196 359.256 540.483C360.074 537.217 362.526 536.409 365.123 536.687C367.771 536.971 369.11 539.094 369.11 542.057C369.106 558.607 369.993 575.184 368.575 591.69C368.296 594.933 368.418 599.923 364.406 600.202C360.107 600.501 359.311 595.586 358.08 591.849C357.797 590.991 357.896 589.955 357.828 588.355Z" fill="white"/>
<path d="M967.916 561.09C971.78 556.406 974.099 557.893 975.702 562.96C978.014 570.267 978.767 577.861 978.684 585.587C978.629 590.656 979.175 595.613 979.873 600.594C980.253 603.312 979.628 606.057 977.227 607.237C974.818 608.422 973.61 605.873 972.21 604.269C968.195 599.669 968.21 593.364 967.632 587.508C966.786 578.93 966.646 570.272 967.916 561.09Z" fill="white"/>
<path d="M365.539 495.347C369.12 492.091 372.308 491.471 373.929 496.88C374.698 499.444 374.831 502.769 372.813 504.997C371.453 506.499 369.719 505.888 368.359 504.62C365.956 502.38 363.282 500.182 365.539 495.347Z" fill="white"/>
<path d="M649.549 523.762C647.788 520.73 648.229 518.488 650.828 518.032C653.264 517.605 656.151 516.314 658.207 519.065C659.606 520.936 658.722 523.257 657.783 525.052C656.42 527.662 654.35 526.958 652.433 525.977C651.528 525.513 650.72 524.782 649.549 523.762Z" fill="white"/>
<path d="M969.838 529.106C970.853 529.215 971.522 529.186 971.998 529.532C974.138 531.094 977.243 532.52 975.569 536.297C974.392 538.953 971.808 539.711 969.421 537.533C966.411 534.787 966.036 531.949 969.838 529.106Z" fill="white"/>
<path d="M1294.71 561.276C1301.4 556.714 1314.17 559.29 1318.41 565.631C1319.42 567.14 1319.18 568.445 1318.42 569.826C1315.2 575.677 1314.07 582.108 1312.65 588.552C1310.84 596.812 1306.73 604.545 1302.66 611.666C1297.91 619.956 1293.52 628.594 1287.37 636.309C1280.42 645.009 1271.13 649.011 1261.87 652.974C1256.45 655.295 1250.85 657.842 1246.96 661.493C1243.07 665.142 1237.97 665.729 1234.77 665.829C1230.54 665.961 1227.73 668.626 1224.04 668.768C1217.1 669.036 1210.26 668.618 1203.35 667.393C1193.53 665.65 1189.13 657.365 1182.68 651.591C1176.84 646.366 1174.1 638.894 1170.39 632.238C1167.71 627.421 1168.88 622.281 1172.55 617.591C1175.54 613.764 1179.45 612.926 1183.03 614.39C1190.38 617.392 1198.79 615.625 1205.69 620.018C1216.69 616.58 1226.21 627.342 1237.46 623.142C1244.46 620.529 1252.55 621.902 1259.26 620.102C1267.58 617.871 1274.55 611.125 1279.34 602.752C1284.52 593.693 1285.58 583.646 1288.12 573.949C1289.34 569.288 1291.25 565.148 1294.71 561.276Z" fill="white"/>
<path d="M1324.82 494.05C1325.2 497.85 1325.23 501.184 1324.46 504.546C1322.34 513.872 1323.98 523.238 1324.68 532.531C1325 536.628 1323.42 538.319 1320.15 538.789C1310.84 540.127 1304.66 537.199 1304.58 525.924C1304.48 513.261 1300.76 501.602 1295.27 490.405C1290.64 480.953 1284.95 472.109 1279.33 463.223C1278.02 461.144 1276.55 459.722 1274.1 459.535C1267.59 459.041 1261.15 457.949 1254.56 458.604C1244.75 459.579 1235.21 456.492 1225.43 456.207C1221.28 456.087 1217.26 456.834 1213.13 456.665C1201.88 456.203 1190.69 454.776 1179.36 457.408C1171.25 459.293 1167.57 461.872 1166.13 470.174C1164.84 477.579 1164.4 485.04 1164.1 492.54C1163.96 496.099 1165.16 499.12 1166.22 502.31C1166.68 503.687 1166.94 505.36 1165.49 506.467C1164.5 507.229 1163.36 507.004 1162.32 506.399C1160.84 505.54 1160.66 504.236 1160.59 502.589C1159.94 488.333 1160.72 474.158 1162.24 459.98C1162.59 456.726 1161.74 453.249 1160.97 449.986C1159.37 443.166 1162.68 437.539 1165.13 431.741C1165.96 429.77 1167.78 429.726 1169.88 430.883C1182.62 437.91 1195.82 442.289 1210.79 443.211C1226.36 444.171 1242.11 444.952 1257.58 448.489C1264.89 450.159 1272.59 451.433 1280.3 451.68C1285.65 451.852 1289.67 456.017 1291.84 459.703C1297.85 469.92 1304.19 480.136 1307.24 491.851C1307.9 494.385 1308.12 494.328 1311.13 496.81C1316.8 492.734 1316.17 484.5 1321.87 480.127C1327.53 483.832 1326.62 488.639 1324.82 494.05Z" fill="white"/>
<path d="M1245.87 576.782C1248.65 575.583 1250.59 576.476 1252.48 577.955C1258.67 582.801 1264.93 587.569 1271.14 592.408C1275.76 596.017 1273.21 598.702 1269.59 600.997C1271.41 604.034 1273.4 606.725 1270.83 609.978C1268.22 613.267 1265.17 611.687 1261.8 611.65C1243.81 611.448 1226.26 605.632 1208.15 607.658C1203.29 608.201 1198.49 608.829 1194.11 611.327C1191.73 612.686 1188.68 613.674 1187.4 610.365C1186.14 607.08 1189.32 606.659 1191.64 605.855C1204.99 601.214 1218.28 599.548 1232.42 603.177C1240.63 605.283 1249.53 604.72 1258.13 605.264C1259.53 605.353 1261.22 605.588 1262.29 602.991C1251.03 598.583 1239.47 594.465 1230.66 584.501C1234.26 579.385 1240.74 579.715 1245.87 576.782Z" fill="white"/>
<path d="M1209.53 578.562C1211.58 579.15 1213.22 579.972 1214.83 579.907C1220.14 579.692 1220.87 583.393 1221.28 587.212C1221.59 590.086 1216.6 595.156 1213.62 595.688C1205.73 597.098 1197.41 596.354 1190.09 600.718C1185.95 603.19 1182.22 600.049 1178.59 598.803C1176.46 598.073 1177.46 595.432 1178.96 594.122C1185.01 588.863 1190.97 583.462 1197.38 578.667C1200.83 576.089 1205.14 576.212 1209.53 578.562Z" fill="white"/>
<path d="M1260.18 500.993C1267.98 499.988 1274.98 501.157 1281.97 503.506C1284.51 504.358 1287.23 504.387 1288.07 507.484C1288.79 510.166 1288.57 512.904 1286.29 514.684C1284.02 516.455 1281.08 517.579 1278.43 515.801C1273.2 512.303 1267.45 511.858 1261.41 511.292C1256.91 510.868 1253.69 511.768 1250.13 514.426C1243.1 519.68 1236.32 517.137 1233.83 508.885C1232.97 506.052 1233.75 503.265 1236.5 503.181C1244.3 502.941 1251.78 499.667 1260.18 500.993Z" fill="white"/>
<path d="M1187.7 516.904C1184.8 517.067 1182.5 517.765 1180.17 518.521C1176.45 519.724 1173.12 518.577 1170.4 515.859C1168.38 513.838 1169.34 511.343 1170.47 509.602C1172.49 506.458 1175.51 503.254 1179.32 503.622C1188.31 504.496 1197.09 504.605 1205.71 501.535C1206.17 501.372 1206.79 501.669 1207.44 501.769C1208.58 505.308 1209.8 508.814 1210.82 512.377C1211.38 514.295 1211.26 516.995 1208.69 516.372C1201.71 514.678 1195.02 518.487 1187.7 516.904Z" fill="white"/>
</svg>
