<svg width="966" height="287" viewBox="0 0 966 287" fill="none" xmlns="http://www.w3.org/2000/svg">
<path d="M291.241 196.409C287.487 198.143 283.911 198.196 280.316 197.414C277.46 196.793 275.535 195.112 275.147 192.048C274.952 190.511 275.392 189.173 276.859 188.508C278.106 187.943 279.093 188.69 279.5 189.784C280.631 192.827 282.681 194.019 285.753 193.002C289.286 191.833 292.429 190.183 293.116 185.933C293.887 181.164 292.477 167.37 290.416 161.446C286.341 166.095 281.544 167.417 275.66 165.556C267.144 162.861 262.983 157.96 263.895 150.959C265.077 141.886 272.515 134.805 280.766 134.898C285.474 134.951 291.589 140.274 293.244 145.524C297.038 157.557 299.349 169.774 299.261 182.479C299.217 188.756 297.556 193.567 291.241 196.409ZM284.63 156.886C285.194 155.432 285.96 154.021 286.283 152.516C287.063 148.88 283.683 140.272 281.258 140.186C276.855 140.03 274.02 142.931 272.198 146.549C270.437 150.046 269.726 153.924 273.124 156.914C276.512 159.894 280.356 160.463 284.63 156.886Z" fill="white"/>
<path d="M188.127 180.782C188.008 184.185 187.977 187.165 187.822 190.138C187.679 192.86 186.328 194.779 183.446 194.515C180.774 194.271 179.772 192.15 180.13 189.713C181.57 179.922 181.775 170.053 182.285 160.198C182.404 157.901 183.084 155.446 186.273 155.3C188.772 155.186 188.889 152.862 189.674 151.295C192.088 146.478 195.513 142.77 200.628 140.862C208.272 138.012 215.94 144.209 215.092 152.439C213.744 165.508 204.702 168.345 193.633 167.648C192.878 167.6 192.139 167.299 191.066 167.036C189.237 171.385 188.91 175.922 188.127 180.782ZM208.434 149.566C205.814 146.033 203.034 145.708 199.522 148.921C195.995 152.147 193.704 156.143 193.113 161.062C205.18 161.242 208.36 158.977 208.434 149.566Z" fill="white"/>
<path d="M140.367 221.559C136.91 220.304 137.266 217.6 137.502 215.141C138.722 202.389 142.998 190.388 146.943 178.339C148.078 174.87 148.417 171.872 147.099 168.417C145.765 164.92 145.041 161.188 144.1 157.546C143.724 156.088 142.793 154.253 145.003 153.584C146.896 153.01 148.469 154.097 149.113 155.883C150.013 158.381 150.567 161.003 151.348 163.547C151.608 164.394 152.112 165.166 152.729 166.435C155.996 162.466 158.932 158.857 161.923 155.294C162.721 154.345 163.612 153.437 164.597 152.691C166.417 151.312 168.073 151.783 169.603 153.341C171.187 154.953 170.815 156.569 169.435 157.882C163.541 163.492 160.628 171.085 156.129 177.529C147.548 189.82 144.931 203.346 143.964 217.631C143.812 219.866 142.879 221.142 140.367 221.559Z" fill="white"/>
<path d="M105.766 122.138C103.352 118.015 104.03 116.298 108.105 115.975C115.203 115.411 121.974 113.28 128.872 111.799C132.959 110.921 137.002 111.149 141.067 111.21C143.723 111.25 145.865 113.014 145.964 115.418C146.085 118.351 143.286 118.326 141.041 118.353C140.884 118.355 140.727 118.347 140.57 118.348C120.65 118.485 125.755 118.912 122.498 135.817C120.355 146.94 120.832 158.631 119.182 169.988C118.862 172.195 118.225 174.416 115.778 174.286C113.24 174.152 112.257 171.855 112.271 169.477C112.281 167.764 112.576 166.026 112.954 164.346C115.31 153.898 116.101 143.239 117.314 132.636C117.746 128.86 119.14 125.379 121.148 121.529C115.689 120.582 110.976 124.419 105.766 122.138Z" fill="white"/>
<path d="M623.381 126.821C632.466 122.274 639.071 125.419 641.229 134.801C642.528 140.447 644.322 145.967 643.647 151.913C643.394 154.151 643.779 156.767 640.539 156.517C637.746 156.302 636.263 154.097 636.906 151.49C638.23 146.127 636.432 141.232 635.286 136.218C634.826 134.206 634.222 132.088 631.72 131.782C629.014 131.451 626.886 132.433 625.374 134.871C622.494 139.518 620.914 144.542 620.664 149.977C620.54 152.686 620.135 155.441 616.731 155.163C613.198 154.875 612.987 151.979 613.269 149.114C614.082 140.838 613.758 132.552 613.557 124.261C613.481 121.145 613.824 118.015 614.061 114.897C614.163 113.55 614.768 112.428 616.339 112.388C618.068 112.344 618.714 113.414 619.092 114.988C619.883 118.273 619.044 121.549 619.256 124.816C619.42 127.343 620.018 129.472 623.381 126.821Z" fill="white"/>
<path d="M829.991 155.108C815.142 154.739 812.04 140.218 815.832 130.154C817.413 125.961 820.266 122.523 824.256 120.318C826.892 118.861 829.929 117.503 832.549 119.981C834.971 122.271 834.737 125.381 833.576 128.331C831.91 132.563 828.836 135.615 825.32 138.382C823.723 139.638 820.193 139.834 821.699 143.336C823.219 146.867 825.924 148.858 829.864 148.27C834.881 147.522 839.554 145.688 843.837 142.941C845.596 141.813 847.542 140.308 849.165 142.611C850.801 144.934 849.031 147.031 847.261 148.175C842.101 151.512 836.395 153.704 829.991 155.108Z" fill="white"/>
<path d="M731.114 143.27C730.848 144.735 730.733 145.847 730.376 146.875C728.251 152.983 723.748 156.513 719.169 155.732C712.228 154.55 707.444 149.626 707.193 143.24C707.095 140.735 707.046 138.186 707.397 135.717C707.893 132.231 708.63 129.067 704.792 126.635C702.735 125.332 704.076 123.402 705.847 122.674C708.946 121.399 709.209 119.008 709.234 116.168C709.256 113.679 709.782 111.198 710.016 108.707C710.202 106.723 710.516 104.55 713.055 104.905C715.681 105.272 716.519 107.444 716.013 109.895C715.406 112.836 715.221 115.741 715.634 118.702C718.003 119.666 719.771 118.531 721.525 117.618C723.029 116.835 724.301 116.982 725.201 118.378C726.152 119.855 725.399 121.127 724.231 122.074C723.14 122.957 721.998 124.049 720.71 124.369C714.472 125.92 713.579 130.643 713.507 135.94C713.471 138.607 713.368 141.279 713.47 143.941C713.586 146.958 715.625 148.325 718.297 148.872C721.125 149.451 722.729 147.982 723.607 145.434C724.427 143.049 725.075 140.636 725.137 138.094C725.18 136.379 724.929 134.278 727.427 134.261C729.488 134.247 730.302 135.92 730.572 137.761C730.821 139.458 730.964 141.171 731.114 143.27Z" fill="white"/>
<path d="M382.62 130.247C386.577 131.753 388.417 130.511 389.52 126.831C390.726 122.805 392.041 118.713 394.938 115.436C399.098 110.731 405.537 111.375 408.855 116.834C399.735 116.993 398.583 117.681 396.291 124.523C395.597 126.593 394.426 129.173 396.176 130.729C398.129 132.464 400.957 131.399 403.33 130.716C405.032 130.226 406.707 127.23 408.337 130.312C409.766 133.013 407.524 134.611 405.54 135.99C404.21 136.915 402.66 137.394 401.089 137.288C395.824 136.936 393.904 139.639 393.824 144.556C393.772 147.691 393.408 150.818 393.913 153.944C394.396 156.927 393.097 159.351 390.266 159.441C387.075 159.542 385.565 156.554 386.03 153.839C386.774 149.486 385.618 145.044 387.069 140.77C387.842 138.495 386.924 137.224 384.402 137.032C382.535 136.889 380.649 136.569 378.854 136.045C377.211 135.565 375.287 134.785 375.467 132.706C375.653 130.572 377.648 130.306 379.409 130.168C380.343 130.095 381.287 130.171 382.62 130.247Z" fill="white"/>
<path d="M455.972 141.023C453.572 143.747 450.764 145.089 447.604 145.614C444.228 146.175 444.302 147.819 445.872 150.187C449.217 155.233 455.002 156.042 459.602 152.069C460.075 151.66 460.5 151.195 460.941 150.749C462.216 149.461 463.709 148.215 465.412 149.655C467.452 151.381 465.881 153.006 464.764 154.524C457.857 163.915 445.345 162.855 439.419 152.132C436.106 146.137 437.087 139.992 440.403 134.195C443.237 129.242 447.88 127.84 453.2 127.955C455.925 128.014 458.677 128.372 460.207 130.973C461.935 133.912 459.556 135.957 458.192 138.15C457.616 139.077 456.874 139.9 455.972 141.023ZM451.995 135.001C447.33 133.89 446.616 137.568 444.508 141.085C448.649 140.333 451.074 138.874 451.995 135.001Z" fill="white"/>
<path d="M357.032 137.268C348.97 137.513 345.988 139.614 344.794 145.876C344.278 148.582 344.615 150.824 347.688 151.942C350.568 152.99 352.568 151.998 354.132 149.666C358.196 143.607 359.466 143.676 362.767 150.479C364.807 154.682 367.845 156.056 372.366 154.901C375.907 153.997 379.187 151.668 383.181 152.494C380.833 161.709 366.868 163.335 357.316 155.604C354.394 157.104 351.961 159.92 348.087 159.346C341.461 158.365 337.247 152.6 338.221 145.645C339.251 138.295 346.365 132.136 353.761 132.569C356.117 132.706 359.881 132.692 357.032 137.268Z" fill="white"/>
<path d="M235.617 136.041C242.957 135.454 249.04 136.451 252.399 143.846C254.907 149.367 251.686 153.598 249.599 157.821C246.362 164.371 240.363 166.525 234.758 164.113C228.541 161.438 224.156 153.117 225.798 147.122C227.209 141.965 230.115 138.102 235.617 136.041ZM245.976 150.194C246.018 144.217 245.583 143.901 238.268 142.613C233.426 141.76 233.756 146.016 232.535 148.4C230.468 152.432 232.655 155.261 236.2 157.113C240.481 159.349 243.009 157.673 245.976 150.194Z" fill="white"/>
<path d="M754.559 127.532C760.113 131.16 760.838 139.727 756.744 146.573C754.396 150.499 747.349 151.467 741.709 148.879C736.002 146.26 733.909 142.216 735.53 136.911C736.311 134.355 737.301 131.918 738.808 129.663C742.92 123.506 747.224 122.813 754.559 127.532ZM751.283 132.589C747.281 130.087 744.082 131.58 742.28 136.505C741.017 139.956 742.212 141.962 745.48 142.919C748.718 143.867 751.409 143.462 752.174 139.461C752.586 137.306 753.001 135.155 751.283 132.589Z" fill="white"/>
<path d="M684.032 133.312C686.2 134.828 688.171 136.112 690.173 137.344C692.206 138.596 694.222 140.001 695.361 142.067C700.637 151.641 698.662 155.256 689.704 157.085C686.476 157.744 683.26 158.557 679.92 158.085C678.474 157.88 677.034 157.548 676.832 155.751C676.59 153.595 678.23 153.136 679.792 152.808C682.555 152.227 685.407 151.987 688.105 151.203C691.959 150.083 692.604 147.311 689.581 144.617C687.61 142.86 685.23 141.538 682.946 140.166C680.222 138.529 677.662 136.725 675.867 134.056C673.024 129.826 674.708 124.669 679.468 122.901C681.911 121.994 684.108 122.308 685.885 124.351C687.702 126.439 686.286 128.123 685.169 129.843C684.529 130.83 683.104 131.499 684.032 133.312Z" fill="white"/>
<path d="M336.001 131.51C333.198 134.451 329.79 134.294 326.524 134.247C321.702 134.178 318.95 136.627 317.415 140.931C315.507 146.283 314.41 151.818 313.548 157.414C313.221 159.537 312.66 161.751 309.859 161.2C307.404 160.717 306.222 158.88 306.457 156.307C307.115 149.125 307.609 141.92 308.541 134.773C308.934 131.76 309.958 128.275 314.268 131.545C315.302 132.329 316.005 131.65 316.779 131.176C321.874 128.055 327.603 128.373 333.226 128.147C335.264 128.065 336.651 128.756 336.001 131.51Z" fill="white"/>
<path d="M487.59 133.424C495.13 132.183 498.848 134.389 501.389 141.044C503.209 145.811 503.415 150.838 503.975 155.805C504.158 157.427 503.662 159.052 501.775 159.483C499.717 159.954 498.594 158.698 497.833 156.96C496.726 154.431 497.263 151.659 496.679 149.094C495.789 145.191 495.335 140.021 490.443 139.653C486.014 139.319 485.056 144.149 483.594 147.57C482.717 149.62 482.444 151.788 482.22 153.982C482.035 155.795 481.011 156.845 479.095 156.75C477.419 156.668 476.642 155.624 476.308 154.076C474.857 147.37 480.861 136.085 487.59 133.424Z" fill="white"/>
<path d="M520.898 126.646C525.458 123.297 527.095 123.545 529.757 127.712C529.099 129.683 525.28 127.779 525.604 131.064C525.87 133.763 528.001 134.594 529.916 135.589C531.58 136.455 533.36 137.106 535.11 137.797C538.877 139.284 541.734 141.521 541.657 146.013C541.579 150.562 539.239 153.81 535.248 155.677C531.725 157.325 527.902 157.219 524.151 156.432C522.611 156.109 520.888 155.489 520.959 153.533C521.03 151.57 522.775 151.074 524.355 150.927C526.222 150.752 528.117 150.874 530 150.879C531.995 150.884 533.868 150.584 534.48 148.304C535.124 145.906 534.429 143.875 532.194 142.681C529.705 141.351 527.073 140.291 524.573 138.978C518.263 135.665 517.535 133.331 520.898 126.646Z" fill="white"/>
<path d="M775.434 149.956C775.062 152.757 775.567 155.927 771.811 155.793C768.281 155.666 767.502 152.908 767.787 150.056C768.49 143.026 768.529 136.002 768.384 128.949C768.332 126.42 770.081 124.149 772.543 126.093C775.202 128.192 777.505 127.368 780.006 126.825C781.865 126.422 783.674 125.867 785.536 126.565C787.073 127.142 788.381 128.129 788.523 129.869C788.645 131.352 787.412 132.365 786.202 132.419C775.951 132.875 776.871 141.037 775.561 147.664C775.44 148.274 775.486 148.916 775.434 149.956Z" fill="white"/>
<path d="M798.781 126.752C802.418 125.07 802.678 127.737 802.974 129.804C803.771 135.362 804.426 140.945 804.962 146.535C805.146 148.453 805.72 150.148 806.44 151.893C807.153 153.621 806.892 155.421 805.065 156.357C803.152 157.338 801.739 156.191 800.759 154.652C800.1 153.618 799.356 152.408 799.311 151.251C799.002 143.188 796.663 135.182 798.781 126.752Z" fill="white"/>
<path d="M660.635 130.699C661.502 128.487 662.511 126.844 664.896 127.96C666.737 128.823 667.837 130.289 667.43 132.486C666.168 139.297 665.877 146.126 666.779 153.018C667.004 154.74 666.129 156.023 664.121 156.15C662.097 156.279 660.794 155.43 660.353 153.447C659.316 148.778 660.052 144.085 660.509 139.45C660.788 136.619 660.891 133.858 660.635 130.699Z" fill="white"/>
<path d="M414.686 155.545C414.987 149.827 415.49 144.519 417.477 139.483C418.066 137.991 418.733 136.343 420.802 137.07C422.332 137.607 422.881 139.023 422.502 140.542C421.24 145.608 421.472 150.787 421.151 155.928C421.026 157.93 421.041 160.388 418.213 160.51C415.151 160.642 414.95 158.172 414.686 155.545Z" fill="white"/>
<path d="M662.162 116.054C661.081 113.458 661.66 111.68 664.008 110.816C665.891 110.123 666.904 111.539 667.74 112.9C669.061 115.051 667.59 116.463 666.217 117.76C664.096 119.764 663.31 117.687 662.162 116.054Z" fill="white"/>
<path d="M425.593 121.18C424.062 122.902 422.53 123.437 420.915 122.053C419.923 121.203 419.456 119.975 420.155 118.695C420.889 117.35 422.12 116.568 423.639 116.973C425.575 117.489 426.425 118.826 425.593 121.18Z" fill="white"/>
<path d="M796.249 115.26C798.3 114.118 799.941 114.175 800.854 116.116C801.464 117.415 801.325 118.874 800.146 119.973C799.223 120.833 798.13 120.879 797.175 120.155C795.59 118.953 794.447 117.531 796.249 115.26Z" fill="white"/>
</svg>
